<svg version="1" xmlns="http://www.w3.org/2000/svg" width="666.667" height="666.667" viewBox="0 0 500.000000 500.000000"><path d="M0 250v250h328l.1-66.8c.1-36.7.1-69.6.1-73.2 0-3.6.4-7 .9-7.6 1.2-1.4 8.1-.7 9.2.9.5.7 5.5 9.4 11.2 19.5 5.6 10.1 10.5 18 10.7 17.5.3-.4.4-2.2.3-3.8-.1-1.7-.3-89.3-.4-194.8L360 0H0v250zm104.7 103.3c4.2 2.2 6.3 6.4 6.3 12.3 0 3.9-.5 5.1-3.5 8.1-2 2-3.4 3.7-3.3 3.8.2.1 1.4.8 2.6 1.5 1.3.6 3.3 3.2 4.4 5.7 3.7 8.4-.1 16.8-8.8 19.2-2.1.6-8.9 1.1-15 1.1H76.2l-.1-26.4c-.2-20.9.1-26.5 1.1-26.9.7-.3 6.5-.4 12.8-.3 8.7.1 12.3.6 14.7 1.9zm46.1.9l.3 2.8H125l-.1 5.7c-.1 3.2-.2 7-.3 8.5l-.2 2.8H143V379.7l-9-.1c-4.9-.1-9 .1-9 .4-.1.3-.2 4.8-.2 10l-.2 9.5 13.7.3 13.7.3v4.9h-33.5l-.3-26.1c-.3-20.9-.1-26.4 1-27.1.7-.5 8.1-.7 16.3-.6l15 .3.3 2.7zm29.2 17.5l11.5 20.1.3-20.4.2-20.4 2.3.4c1.2.3 2.5.5 3 .5.4.1.6 11.9.5 26.3l-.3 26.3-2.6.3c-2.4.3-3.5-1.3-15.4-22.3-7-12.4-13.1-22.7-13.4-22.9-.3-.2-.5 9.9-.3 22.5l.2 22.9h-6v-54.1l4.3.3 4.2.3 11.5 20.2zm49.4-19.6c.3.3 11.8 37.2 15.6 50.1.8 2.7.7 2.8-2.4 2.8-3.3 0-3.3-.1-5.8-8.3l-2.4-8.2h-18.9l-2.5 8.2c-2.4 8.2-2.5 8.3-5.8 8.3-3 0-3.3-.2-2.6-2.3.4-1.2 4-12.9 8-25.9 4-13 7.5-24.2 7.8-24.7.6-.9 8.2-.9 9 0zm17.4-.2c.8.5 4.2 10.2 7.6 21.6 3.5 11.4 6.5 20.4 6.8 19.9.3-.5 3.1-9.7 6.3-20.4 3.2-10.7 6.3-20.1 6.8-20.7.9-1.2 5.7-1.4 5.7-.3 0 .3-3.6 12.2-8 26.4s-8 26-8 26.2c0 .2-1.3.4-2.9.4-3.3 0-1.8 4-14.5-37.3-2.5-8.2-4.4-15.3-4-15.8.7-1.1 2.5-1.1 4.2 0zm71 2.3l.3 2.8H292v17h18v6l-8.7-.2-8.8-.3-.3 10.3-.3 10.2H319v5h-33v-26.3c0-14.5.3-26.7.7-27.1.4-.4 7.5-.6 15.8-.4l15 .3.3 2.7z"/><path d="M83 365.5v8.5h7.9c7.1 0 8.3-.3 11-2.6 2.5-2.1 3.1-3.4 3.1-6.4 0-6.1-3.2-8-13.6-8H83v8.5zM83.5 379.8c-.3.3-.5 5-.5 10.5v9.9l8.4-.3c10.7-.5 13.9-2.5 14.4-8.7.4-5-.9-7.7-4.8-9.7-2.8-1.5-16.4-2.8-17.5-1.7zM220.8 369.3c-2 7.3-3.5 13.3-3.3 13.5.1.2 3.6.2 7.7 0l7.5-.3-3.6-12.7c-2-7-3.8-12.9-4.1-13.2-.3-.2-2.2 5.5-4.2 12.7zM366 202.5V405h-2.4c-2.2 0-4.2-3-16-23.7L334 357.5V500h166V0H366v202.5zm40.7 149.2c.7.3 1.3 1.6 1.3 2.9 0 2.3-.2 2.4-8 2.4h-8v48h-7l.3-24 .2-23.9-7.9-.3c-7-.3-7.9-.5-8.2-2.3-.2-1.1.2-2.3.9-2.7 1.2-.8 34.4-.8 36.4-.1zm39.1 2.5l.3 2.8H420v17h9.5c9.4 0 9.5 0 9.5 2.4 0 3.1-.9 3.4-10.5 3.3l-8-.1-.3 10.2-.3 10.2H448v5h-34v-26.3c0-14.5.3-26.7.7-27.1.4-.4 7.5-.6 15.8-.4l15 .3.3 2.7z"/></svg>